<svg id="Layer_1" data-name="Layer 1" xmlns="http://www.w3.org/2000/svg" viewBox="0 0 1920 1037"><defs><style>.cls-1{fill:#fff;}</style></defs><title>Peoples_Logo_Black</title><path class="cls-1" d="M1920,1037H0V0H1920ZM828,102.76V110q0,145.88,0,291.75a233.41,233.41,0,0,1-6.56,55.87c-7.88,32.15-22,60.86-46.37,84-27.48,26.11-60.61,40.28-97.49,46.84-39.61,7.05-79.67,9.15-119.74,10.68-42.34,1.61-84.41,5.38-125.87,14.06-46.21,9.68-92.21,20.36-138.3,30.63-32.65,7.28-65.41,14-98.81,16.8-13.72,1.14-27.49,1.59-41.52,2.37,2.23.49,4.27,1,6.34,1.38a662.37,662.37,0,0,0,137.17,10.22,540.3,540.3,0,0,0,100.42-12.28c22.41-4.9,44.73-10.83,67.42-13.58,27.53-3.33,55.4-3.88,83.13-5.47,12.87-.73,25.76-1.05,39.18-1.59-9.77,5.68-19.07,11.06-28.34,16.48-23.11,13.53-39.61,32.66-49.13,57.76-4.84,12.75-9.75,25.47-14.92,38.08-6.48,15.79-13.74,31.11-28.81,41.38,3.33.12,6.88.44,9.58-.92,7.52-3.78,15.29-7.49,21.88-12.61,16.18-12.58,28.64-28.71,40.4-45.32,7.79-11,14.63-22.69,22.82-33.36C576,683,597.09,669.9,620.56,661.7c29.15-10.19,58.81-19.1,88.65-27,24.66-6.55,48.67-14,69.22-29.53,10-7.58,19.27-16.13,28.6-24,0-.36.11,0,0,.2q-1.08,2-2.26,3.88c-20.39,33-47.27,60.08-77.84,83.6-19.37,14.9-37.53,30.93-51.51,51.16C649,758.2,642.64,799,660.73,842.47c8.64,20.73,24.5,36.19,40.1,51.74,14.57,14.52,30.78,28,34.33,51.63,4.17-12.21,4.12-23.28,2.87-34.37-2.53-22.44-10.2-43.3-20.3-63.32-17.88-35.47-14.46-69,10-99.91a174,174,0,0,1,28.81-28.14c22.71-17.89,44.25-36.93,63.21-58.72,20.57-23.62,40.27-47.9,49.58-78.79a22.42,22.42,0,0,1,3.84,0c29,5,58.13,9.4,87,15.12,26.6,5.27,52.79,12.34,77.59,23.73,2.31,1.06,4.49,2.39,7.09,3.78-15,7.45-29.62,14-43.48,21.78a452.72,452.72,0,0,0-40.83,25.9c-16.88,12.06-30.7,26.58-33.66,33.48,1.61-.62,2.95-1.19,4.33-1.67,33.25-11.63,66.33-23.82,99.83-34.7a399.31,399.31,0,0,1,81.76-17.85c1.69-.18,3.92-.06,5.13.9,12.14,9.54,24.64,18.73,36,29.15,12,11,19,26,27.36,39.75,23.16,38.15,51.6,71.52,89.12,96.34,28.35,18.75,59.34,29.77,93.75,29.66,2.12,0,4.25-.39,6.32-.59-11-5-22.19-9.11-32.43-14.83-47.86-26.72-80.73-66.72-100.58-117.33a167.44,167.44,0,0,0-48.42-67.9c-1.15-1-2.2-2.07-3.45-3.26,14.69-2.4,28.62-4.85,42.6-6.88,6.69-1,13.61-2.18,20.21-1.42a228.36,228.36,0,0,1,32.78,6.26c41.33,11,79.29,29.74,115.85,51.53,1.39.83,2.8,1.61,4.2,2.42-24.7-30.87-54.68-55.33-88.78-76.43,3.64-.21,6.24-.38,8.84-.51,3.65-.19,7.31-.38,11-.52,36.19-1.35,71.18,5.42,105.75,15.32,37.45,10.73,75.23,19.94,114,24.4,46.4,5.33,92.94,7,139.6,6.08,2.18,0,4.37,0,6.55,0-15.19-3.43-30.49-5.8-45.4-9.69q-92.19-24-184.14-48.94c-33-9-66-17-100.2-19.7-33.73-2.68-67.49-4.06-101.27-2.53-29.24,1.32-58.43,3.85-87.64,5.89-15.58,1.1-31.2,3.75-46.72,3.19-46.55-1.7-91.57-12.13-135.49-27.27-22.54-7.77-44.38-17.15-64-31.07-11.72-8.33-20.18-18.8-24.71-32.82a270.58,270.58,0,0,1-12.88-75c-.76-23.77-.56-47.58-.76-71.37,0-1.45.2-2.9.35-5,3.2,0,6.15,0,9.1,0,21.45-.2,42.93.85,64.21-3.44,40.46-8.16,64.39-35.79,64.86-76.16q.51-44,0-87.93c-.36-35.65-18.59-61.2-51.32-72.5A136.15,136.15,0,0,0,938.5,103c-34.81-.26-69.62-.17-104.44-.23Zm-55,202c0-8.83,0-17.65,0-26.47-.16-34.95.28-69.92-.68-104.85-.91-33.09-19.62-57.81-51.07-67.76-34.2-10.83-69-10.5-103.28-.52-22.44,6.53-38.82,20.77-47,43.24-4.1,11.21-5.53,22.89-5.53,34.8q0,103.13,0,206.25c0,14.48-.16,29,.22,43.44.92,35,20,61.15,53.17,71,32.44,9.66,65.44,9.57,98.07.76,26-7,44.75-22.85,51.89-49.56a133,133,0,0,0,4-32.51C773.32,383.32,773,344,773,304.75Zm838.41,51.61a19.83,19.83,0,0,0-.28,2.23c0,25-.49,50,.11,74.92.93,38.88,20.71,63.88,57.58,72.62a182.42,182.42,0,0,0,81.26.72c39.19-8.49,58.64-31,60.94-71.18,1.28-22.24.14-44.61.57-66.91.54-27.45-10.11-49.28-32.55-64.85-12.55-8.7-25.84-16.36-39-24.14-14.88-8.81-30.12-17-45-25.89-10.79-6.47-17.3-16.24-17.8-29-.52-13.29-.32-26.63,0-39.93a33.19,33.19,0,0,1,2.58-11.11c5-12.67,15.53-16.79,28.18-17.7,22.68-1.63,36.31,10.61,36.5,33.28.13,16.65,0,33.3,0,49.95v7h65.26c0-26.34,1.52-52.39-.39-78.19-2.33-31.4-20.39-52.58-50.24-62.53-31.69-10.56-64-10.59-95.72-.42-33.33,10.67-52,37-52.31,71.68-.15,20.48-.25,41,0,61.44.26,19.44,7,36.34,21,50.19,13.56,13.38,29.94,22.61,46.27,31.94q22.1,12.62,44.27,25.1c14.31,8,22.88,19.54,23,36.43.08,12.49.35,25,0,37.45-.24,8.78-2.29,17.22-8.84,23.75-10.19,10.16-22.76,10.88-35.81,8.28-12.76-2.54-20.3-10.82-22.92-23.41a65.26,65.26,0,0,1-1.17-12.88c-.13-17.81,0-35.63-.07-53.44,0-1.76-.14-3.52-.23-5.45ZM160.85,350.07c12.87,0,25.19.45,37.46-.12,11.93-.56,24-1.23,35.68-3.48,39.84-7.66,60.9-30.89,65.07-71,.77-7.42.54-15,.49-22.44-.19-26.46.74-53-1.1-79.34-2.07-29.5-17.82-50.55-45.68-61.81-15.49-6.27-31.77-8.69-48.32-8.84-35-.32-69.93-.19-104.9-.25H94.16V505.53h66.69Zm1188.21-19h91.74v-59h-91.62V161.58h109.13V103.06H1282.23V505.67h177.91V446.94H1349.06ZM342.14,102.89V505.55h178.2V446.84H409.19V331h91.66V272.06H409.14V161.68H518.4V102.89Zm904,342.77h-6.32c-21.82-.05-43.65.25-65.46-.27-17.85-.43-27.54-9.35-30.44-26.93a79.6,79.6,0,0,1-.7-12.93q-.06-148.14,0-296.27v-6.2h-67v6.69q0,154.13,0,308.26a135.74,135.74,0,0,0,1.19,18.91c3.91,27.42,18,47.5,43.59,58.91a108.25,108.25,0,0,0,41.61,9.49c26.8.63,53.62.46,80.44.61a22.74,22.74,0,0,0,3-.42Zm259-204.4,25,12.72c2.45-3.1,4.59-5.64,6.55-8.32,17.13-23.41,29.12-49,30.46-78.35.92-20.27.4-40.61.49-60.92a24.73,24.73,0,0,0-.41-3.38H1502v74.87h30.21C1527.92,201.33,1518.22,221.86,1505.12,241.26Z"/><path d="M828,102.76h6.06c34.82.06,69.63,0,104.44.23A136.15,136.15,0,0,1,982.19,110c32.73,11.3,51,36.85,51.32,72.5q.45,44,0,87.93c-.47,40.37-24.4,68-64.86,76.16-21.28,4.29-42.76,3.24-64.21,3.44-3,0-5.9,0-9.1,0-.15,2.08-.36,3.53-.35,5,.2,23.79,0,47.6.76,71.37a270.58,270.58,0,0,0,12.88,75c4.53,14,13,24.49,24.71,32.82,19.6,13.92,41.44,23.3,64,31.07,43.92,15.14,88.94,25.57,135.49,27.27,15.52.56,31.14-2.09,46.72-3.19,29.21-2,58.4-4.57,87.64-5.89,33.78-1.53,67.54-.15,101.27,2.53,34.2,2.72,67.24,10.7,100.2,19.7q91.9,25.08,184.14,48.94c14.91,3.89,30.21,6.26,45.4,9.69-2.18,0-4.37,0-6.55,0-46.66.92-93.2-.75-139.6-6.08-38.82-4.46-76.6-13.67-114-24.4-34.57-9.9-69.56-16.67-105.75-15.32-3.65.14-7.31.33-11,.52-2.6.13-5.2.3-8.84.51,34.1,21.1,64.08,45.56,88.78,76.43-1.4-.81-2.81-1.59-4.2-2.42-36.56-21.79-74.52-40.51-115.85-51.53a228.36,228.36,0,0,0-32.78-6.26c-6.6-.76-13.52.45-20.21,1.42-14,2-27.91,4.48-42.6,6.88,1.25,1.19,2.3,2.28,3.45,3.26a167.44,167.44,0,0,1,48.42,67.9c19.85,50.61,52.72,90.61,100.58,117.33,10.24,5.72,21.38,9.82,32.43,14.83-2.07.2-4.2.58-6.32.59-34.41.11-65.4-10.91-93.75-29.66-37.52-24.82-66-58.19-89.12-96.34-8.37-13.79-15.33-28.72-27.36-39.75-11.35-10.42-23.85-19.61-36-29.15-1.21-1-3.44-1.08-5.13-.9A399.31,399.31,0,0,0,1031,670c-33.5,10.88-66.58,23.07-99.83,34.7-1.38.48-2.72,1-4.33,1.67,3-6.9,16.78-21.42,33.66-33.48a452.72,452.72,0,0,1,40.83-25.9c13.86-7.82,28.46-14.33,43.48-21.78-2.6-1.39-4.78-2.72-7.09-3.78-24.8-11.39-51-18.46-77.59-23.73-28.87-5.72-58-10.16-87-15.12a22.42,22.42,0,0,0-3.84,0c-9.31,30.89-29,55.17-49.58,78.79-19,21.79-40.5,40.83-63.21,58.72a174,174,0,0,0-28.81,28.14c-24.44,30.88-27.86,64.44-10,99.91,10.1,20,17.77,40.88,20.3,63.32,1.25,11.09,1.3,22.16-2.87,34.37-3.55-23.59-19.76-37.11-34.33-51.63-15.6-15.55-31.46-31-40.1-51.74C642.64,799,649,758.2,675.42,720c14-20.23,32.14-36.26,51.51-51.16,30.57-23.52,57.45-50.57,77.84-83.6q1.18-1.92,2.26-3.88c.11-.21,0-.56,0-.2-9.33,7.87-18.59,16.42-28.6,24-20.55,15.57-44.56,23-69.22,29.53-29.84,7.93-59.5,16.84-88.65,27C597.09,669.9,576,683,560.5,703.11c-8.19,10.67-15,22.37-22.82,33.36-11.76,16.61-24.22,32.74-40.4,45.32-6.59,5.12-14.36,8.83-21.88,12.61-2.7,1.36-6.25,1-9.58.92,15.07-10.27,22.33-25.59,28.81-41.38,5.17-12.61,10.08-25.33,14.92-38.08,9.52-25.1,26-44.23,49.13-57.76,9.27-5.42,18.57-10.8,28.34-16.48-13.42.54-26.31.86-39.18,1.59-27.73,1.59-55.6,2.14-83.13,5.47-22.69,2.75-45,8.68-67.42,13.58a540.3,540.3,0,0,1-100.42,12.28A662.37,662.37,0,0,1,159.7,664.32c-2.07-.37-4.11-.89-6.34-1.38,14-.78,27.8-1.23,41.52-2.37,33.4-2.77,66.16-9.52,98.81-16.8,46.09-10.27,92.09-20.95,138.3-30.63,41.46-8.68,83.53-12.45,125.87-14.06,40.07-1.53,80.13-3.63,119.74-10.68,36.88-6.56,70-20.73,97.49-46.84,24.33-23.12,38.49-51.83,46.37-84A233.41,233.41,0,0,0,828,401.71q-.09-145.87,0-291.75Zm67.28,188.09c1.79.11,3,.25,4.1.24,12.32-.1,24.65.17,37-.43,18.29-.89,29.37-11.4,29.92-29.58.71-23.11.63-46.28,0-69.4-.41-15.68-8.79-26.45-23.18-28.29-15.72-2-31.74-1.62-47.81-2.29Z"/><path d="M773,304.75c0,39.28.29,78.57-.18,117.85a133,133,0,0,1-4,32.51c-7.14,26.71-25.92,42.54-51.89,49.56-32.63,8.81-65.63,8.9-98.07-.76-33.17-9.88-52.25-36-53.17-71-.38-14.47-.21-29-.22-43.44q0-103.12,0-206.25c0-11.91,1.43-23.59,5.53-34.8,8.21-22.47,24.59-36.71,47-43.24,34.32-10,69.08-10.31,103.28.52,31.45,10,50.16,34.67,51.07,67.76,1,34.93.52,69.9.68,104.85C773.07,287.1,773,295.92,773,304.75Zm-67.3-.14q0-49.68,0-99.37c0-6.16.18-12.33-.24-18.47-1.09-16-9.53-26.22-25-28.44a84.48,84.48,0,0,0-24.74.49c-12.55,2-19.76,10.41-22,22.71a86.94,86.94,0,0,0-1.24,15.88q-.12,106.86-.05,213.72c0,3.16.05,6.32.23,9.48.89,15.87,8.44,26.58,22.28,29.26a77.22,77.22,0,0,0,24.22.84c16-2.08,24-10.86,26.17-26.78a62.9,62.9,0,0,0,.38-8.47Q705.74,360,705.73,304.61Z"/><path d="M1611.44,356.36h65.26c.09,1.93.23,3.69.23,5.45,0,17.81-.06,35.63.07,53.44a65.26,65.26,0,0,0,1.17,12.88c2.62,12.59,10.16,20.87,22.92,23.41,13.05,2.6,25.62,1.88,35.81-8.28,6.55-6.53,8.6-15,8.84-23.75.33-12.47.06-25,0-37.45-.09-16.89-8.66-28.43-23-36.43q-22.2-12.44-44.27-25.1c-16.33-9.33-32.71-18.56-46.27-31.94-14-13.85-20.74-30.75-21-50.19-.29-20.48-.19-41,0-61.44.26-34.64,19-61,52.31-71.68,31.76-10.17,64-10.14,95.72.42,29.85,10,47.91,31.13,50.24,62.53,1.91,25.8.39,51.85.39,78.19h-65.26v-7c0-16.65.11-33.3,0-49.95-.19-22.67-13.82-34.91-36.5-33.28-12.65.91-23.15,5-28.18,17.7a33.19,33.19,0,0,0-2.58,11.11c-.3,13.3-.5,26.64,0,39.93.5,12.74,7,22.51,17.8,29,14.84,8.88,30.08,17.08,45,25.89,13.16,7.78,26.45,15.44,39,24.14,22.44,15.57,33.09,37.4,32.55,64.85-.43,22.3.71,44.67-.57,66.91-2.3,40.2-21.75,62.69-60.94,71.18a182.42,182.42,0,0,1-81.26-.72c-36.87-8.74-56.65-33.74-57.58-72.62-.6-25-.12-49.94-.11-74.92A19.83,19.83,0,0,1,1611.44,356.36Z"/><path d="M160.85,350.07V505.53H94.16V102.76h5.39c35,.06,69.94-.07,104.9.25,16.55.15,32.83,2.57,48.32,8.84,27.86,11.26,43.61,32.31,45.68,61.81,1.84,26.34.91,52.88,1.1,79.34.05,7.48.28,15-.49,22.44-4.17,40.14-25.23,63.37-65.07,71-11.69,2.25-23.75,2.92-35.68,3.48C186,350.52,173.72,350.07,160.85,350.07Zm.11-59.68c15.37,0,30.4,1,45.22-.28,15.45-1.35,24.81-11.1,25.5-26.57,1-23.57,1.48-47.25.38-70.8-.93-20.14-10.89-29.42-30.44-30.63-13.26-.83-26.61-.22-39.92-.22-.24,0-.49.41-.74.64Z"/><path d="M1349.06,331.08V446.94h111.08v58.73H1282.23V103.06h176.08v58.52H1349.18V272.12h91.62v59Z"/><path d="M342.14,102.89H518.4v58.79H409.14V272.06h91.71V331H409.19V446.84H520.34v58.71H342.14Z"/><path d="M1246.14,445.66v59.85a22.74,22.74,0,0,1-3,.42c-26.82-.15-53.64,0-80.44-.61a108.25,108.25,0,0,1-41.61-9.49c-25.64-11.41-39.68-31.49-43.59-58.91a135.74,135.74,0,0,1-1.19-18.91q-.11-154.12,0-308.26v-6.69h67v6.2q0,148.13,0,296.27a79.6,79.6,0,0,0,.7,12.93c2.9,17.58,12.59,26.5,30.44,26.93,21.81.52,43.64.22,65.46.27Z"/><path d="M1505.12,241.26c13.1-19.4,22.8-39.93,27.09-63.38H1502V103h65.23a24.73,24.73,0,0,1,.41,3.38c-.09,20.31.43,40.65-.49,60.92-1.34,29.37-13.33,54.94-30.46,78.35-2,2.68-4.1,5.22-6.55,8.32Z"/><path class="cls-1" d="M895.28,290.85V161.1c16.07.67,32.09.28,47.81,2.29,14.39,1.84,22.77,12.61,23.18,28.29.61,23.12.69,46.29,0,69.4-.55,18.18-11.63,28.69-29.92,29.58-12.3.6-24.63.33-37,.43C898.23,291.1,897.07,291,895.28,290.85Z"/><path class="cls-1" d="M705.73,304.61q0,55.42,0,110.85a62.9,62.9,0,0,1-.38,8.47c-2.21,15.92-10.17,24.7-26.17,26.78a77.22,77.22,0,0,1-24.22-.84c-13.84-2.68-21.39-13.39-22.28-29.26-.18-3.16-.23-6.32-.23-9.48q0-106.86.05-213.72a86.94,86.94,0,0,1,1.24-15.88c2.28-12.3,9.49-20.74,22-22.71a84.48,84.48,0,0,1,24.74-.49c15.45,2.22,23.89,12.42,25,28.44.42,6.14.23,12.31.24,18.47Q705.75,254.92,705.73,304.61Z"/><path class="cls-1" d="M161,290.39q0-64.08,0-127.87c.24-.22.49-.63.73-.63,13.31,0,26.66-.61,39.92.22,19.55,1.21,29.51,10.49,30.44,30.63,1.1,23.55.66,47.23-.38,70.8-.69,15.47-10.05,25.22-25.5,26.57C191.36,291.4,176.33,290.39,161,290.39Z"/></svg>