<svg id="Layer_1" data-name="Layer 1" xmlns="http://www.w3.org/2000/svg" viewBox="0 0 530.9 218.64"><title>PeoplesHoldingsLogo</title><path d="M146.69,63.35v-29c0-23.19,17.44-37.74,40.33-33.68,16.57,2.93,27,14.54,27.28,31.39.34,20.82.31,41.65,0,62.48-.24,17-11.68,29.81-27.48,31.71-19.69,2.35-34.71-6.14-38.75-22.58-1.33-5.4-1.2-11.21-1.35-16.84C146.54,79,146.69,71.18,146.69,63.35Zm20.7-.06c0,11-.37,22,.11,33,.41,9.38,8.66,14.79,17.2,12,5.36-1.74,8.84-6.79,8.94-13.67.15-10.15.05-20.31.05-30.47,0-10.66.13-21.32-.06-32-.13-7.91-4.74-13.27-11.52-14-8-.88-14.32,4.19-14.63,12.67C167.08,41.63,167.38,52.47,167.39,63.29Z"/><path d="M475.5,88a27.08,27.08,0,0,0,3.49,0c5-.67,7,1.09,7,6.53a19,19,0,0,0,4,10.85c5.24,6.49,16,4.15,19.16-3.95,2.63-6.73,1.95-13.38-3.58-18.4s-12-9.48-17.86-14.39c-5-4.15-10.18-8.15-14.38-13-8.91-10.29-10.36-22.52-6.58-35.21C471.17,5.82,486.46-2.17,503.4.65,520.94,3.57,532,18.59,529.62,36.51c-.17,1.28-1.89,2.8-3.24,3.36s-3.28.16-4.94.16c-10.65,0-10.65,0-12-10.14-1-7.49-6.16-12.19-13-11.83-6.47.35-10.75,5.54-11.11,13-.28,5.73,1.44,10.56,5.84,14.2,6.28,5.2,12.74,10.17,19.08,15.28,3.37,2.72,6.82,5.36,10,8.34a35.3,35.3,0,0,1,7.51,40c-6.11,13.56-20.68,20.26-37.36,17.17-14.42-2.67-24.28-14.13-24.91-29,0-.67-.06-1.33-.08-2C465.17,88,465.22,88,472.5,88Z"/><path d="M247.16,73.26c0,15.29,0,29.76,0,44.23,0,7.77,0,7.77-8,7.77-12.71,0-12.71,0-12.71-12.63V9.19c0-7.85,0-7.85,7.6-7.85q12.24,0,24.49,0C278.2,1.35,289.89,11,293,30.27c1.33,8.31.9,16.64-2.51,24.53C285.36,66.68,276.36,73,263.34,73.24,258.22,73.35,253.09,73.26,247.16,73.26Zm0-53.95c0,10.25,0,19.85,0,29.46s-1.18,8.38,8.53,8.42c10.44,0,15.64-4.41,16.89-14.9A36.25,36.25,0,0,0,272.05,31C270.7,24.3,265.8,19.75,260,19.36,256,19.09,252.06,19.31,247.16,19.31Z"/><path d="M392.39,54.34c7.53,0,14.17.13,20.81-.05,3.73-.11,5,1.46,5,5-.2,15.67,1.56,12.73-12.44,12.9-13.36.15-13.36,0-13.36,13.18,0,5.66.27,11.34-.09,17-.27,4.35,1.46,5.34,5.46,5.25,10-.24,20,.07,30-.15,4.16-.09,5.94,1,5.88,5.55-.14,12.22.06,12.22-12.08,12.22-14.66,0-29.32-.18-44,.1-4.75.09-6-1.63-5.95-6.08q.19-56,0-111.92c0-4.26,1.29-5.92,5.73-5.87,17,.18,34,.14,51,0,3.82,0,5.26,1.21,5.28,5.19.07,12.69.2,12.69-12.61,12.69-8,0-16,.11-24-.05-3.3-.07-4.77.74-4.69,4.43C392.54,33.72,392.39,43.68,392.39,54.34Z"/><path d="M.09,63.48C.09,44.83.22,26.19,0,7.55c0-4.72,1.28-6.5,6.2-6.31,9,.35,18,.07,27,.1,17.7.07,29.42,9.33,32.75,26.67,2,10.28,1.64,20.62-3.61,30.13C56.85,68,48.31,73,37.06,73.24a110.07,110.07,0,0,1-11.49,0c-3.91-.31-5.2,1-5.14,5,.23,13.65-.1,27.31.19,41,.1,4.81-1.37,6.29-6.2,6.21C.09,125.13.09,125.32.09,110.92Zm28.4-44.22c-1.5,0-3,.1-4.48,0-2.61-.19-3.53,1-3.51,3.52.07,10.3,0,20.6.1,30.9,0,1.12.9,3.15,1.48,3.18,6.06.35,12.38,1.67,17.78-2.43,6.16-4.67,8.37-15.53,5.25-24.82C42.6,22.13,38,19.26,28.49,19.26Z"/><path d="M96.86,54.34c7.2,0,13.68.17,20.15-.07,4-.14,5.61,1,5.6,5.32,0,12.67.13,12.67-12.58,12.67-13.26,0-13.26,0-13.26,13.33,0,5.66.19,11.33-.07,17-.18,4,1.38,5.13,5.24,5,10.32-.21,20.65.05,31-.13,3.86-.06,5.37,1.24,5.3,5.2-.28,15.08,1.56,12.39-12.32,12.53-14.66.14-29.33-.08-44,.1-4,0-5.55-1-5.54-5.29q.23-56.73,0-113.45c0-3.63,1.12-5.09,4.83-5.07q26,.15,52,0c3.68,0,5,1.43,5,5.05C138,22,139.92,19.14,125.65,19.37c-8.16.13-16.33-.09-24.48.12-1.46,0-4.1,1.33-4.12,2.1C96.77,32.36,96.86,43.14,96.86,54.34Z"/><path d="M303.09,63.84c0-18.81.13-37.63-.09-56.43-.06-4.67,1.52-6,6.05-5.94,14.47.12,14.47,0,14.47,14.39,0,28.8.07,57.6-.08,86.4,0,4.08,1.07,5.5,5.29,5.39,10.32-.28,20.64,0,31-.14,3.66-.06,4.89,1.16,4.91,4.89.07,12.86.2,12.86-12.83,12.86-13.49,0-27,0-40.45,0-8.3,0-8.25,1.36-8.24-8.48Q303.13,90.31,303.09,63.84Z"/><path d="M422.09,197.28V149.85c0-2.69-.44-5.39,3.82-5.36s3.6,2.95,3.6,5.51c0,20.81.06,41.61-.09,62.42,0,1.72-1.1,4.58-2.26,4.92-3,.86-5.92.75-7.42-3.45-5.25-14.72-10.9-29.29-16.41-43.9a13,13,0,0,0-3.05-5.12v52c-7.07,1.46-7.58,1.11-7.58-5.11q0-30.71,0-61.42c0-2.2-1.26-5.32,2.78-5.78,3.54-.41,5.72.5,7.1,4.33,5.36,14.85,11.1,29.56,16.71,44.32.56,1.47,1.21,2.91,1.82,4.37Z"/><path d="M356.39,184l11.26,32.58c-6.16,2.13-7.16,1.68-9-3.76q-3.46-10.41-6.92-20.82c-2.69-8.18-2.67-8.19-12.05-7.13v31.87c-7.08,1.76-7.6,1.39-7.6-4.95,0-20.49.13-41-.11-61.46-.06-4.75,1.52-6.26,6-5.77a82.86,82.86,0,0,0,8.49.05c15.86,0,24.18,11,20.28,26.51C365.3,177,361.81,181.08,356.39,184ZM339.92,151.3v27c6.63-.36,13.75,2.31,17.91-4.89a16.49,16.49,0,0,0,0-17.11C353.66,149,346.54,151.74,339.92,151.3Z"/><path d="M268.34,181.31c0-6.65-.08-13.31,0-20,.15-10.61,7-17.33,17.65-17.39,11-.05,18.23,6.62,18.34,17.27q.21,20,0,39.92c-.1,10.57-7.55,17.58-18.26,17.47s-17.57-6.81-17.74-17.35C268.25,194.62,268.34,188,268.34,181.31Zm7.43-.22c0,6.32-.06,12.63,0,18.95.09,7.45,4.08,12.05,10.38,12.15,5.9.08,10.62-4.39,10.78-11.33.3-13.12.32-26.26,0-39.38-.19-7.13-4.77-11.26-10.94-11.08S275.9,155,275.79,162.14C275.69,168.46,275.77,174.77,275.77,181.09Z"/><path d="M97,216.84c-6.66,1.59-7.25,1.26-8.42-4.51-1.83-8.94-1.83-8.94-10.7-8.94-10.37,0-10.58,0-12.56,10.23-1,5.1-4.16,4-8.29,3.74.8-3.91,1.51-7.55,2.3-11.16,4.11-18.83,8.27-37.64,12.34-56.47.68-3.15,1.41-5.41,5.6-5.32s4.42,2.66,5,5.42q7,31.11,13.91,62.24C96.59,213.65,96.77,215.27,97,216.84ZM85.5,197.05c-2.71-13.27-5.36-26.27-8-39.27l-1,.07c-2.64,13-5.27,25.91-8,39.2Z"/><path d="M529.5,217c-5.07,1.48-7.55.55-8.3-4.81-1.24-8.87-1.59-8.82-10.81-8.82-10.18,0-10.44,0-12.37,10-1.11,5.78-4.45,4.42-8.42,3.64,3.44-15.65,6.83-31.07,10.21-46.48,1.6-7.32,3.27-14.62,4.75-22,.6-3,2-4.12,5.13-4.06s4.32,1,5,4.13c4.71,21.62,9.65,43.19,14.49,64.78A29.26,29.26,0,0,1,529.5,217Zm-28.36-19.93h17c-2.71-13.31-5.34-26.29-8-39.27h-1Z"/><path d="M35.94,164c-6.53,1.75-6.53,1.75-7.35-4.67a9.75,9.75,0,0,0-10.18-8.95c-5.56.08-9.89,4-9.95,9.73q-.26,21.21,0,42.44a9.86,9.86,0,0,0,10.13,9.61c5.3,0,9.36-3.75,10-9.21.76-6.28,1.16-6.52,7.36-4.37,1.33,10.34-4.2,18.34-13.62,19.73C10.67,220.05,1.8,214.59,1.18,203.6a404.59,404.59,0,0,1,0-44.87c.6-10.88,9.51-16.24,21.36-14.51C32,145.59,37.41,153.65,35.94,164Z"/><path d="M220.82,151.26c0,8.38-.11,16.33.15,24.27,0,.84,2.16,2.22,3.39,2.31,4.1.29,8.24.11,12.68.11v6.28H220.9v33h-7.24c-.12-1.58-.31-3-.31-4.47,0-21,.09-41.95-.1-62.92,0-4.16,1.2-5.54,5.36-5.38,7.31.29,14.65,0,22,.13,2.33,0,5.71-1.35,5.83,3.2s-3.17,3.38-5.59,3.42C234.36,151.32,227.9,151.26,220.82,151.26Z"/><path d="M153.11,217.31H120.78c-.12-1.74-.3-3.19-.3-4.64q0-31.44,0-62.9c0-2.75-.35-5.31,3.86-5.29s3.87,2.6,3.86,5.34q0,27.7,0,55.41v6.11c7,0,13.58,0,20.17,0C153.44,211.36,153.44,211.38,153.11,217.31Z"/><path d="M435.3,40.23a41.51,41.51,0,0,1,.4-4.89c2.13-9.87,4.45-19.71,6.43-29.62.6-3,1.79-4.33,4.9-4.2,4.14.17,8.3.07,12.45,0,2.9,0,3.95,1.25,3,4.08-3.57,10.67-7.06,21.38-10.77,32a4.44,4.44,0,0,1-3.11,2.47C444.34,40.41,440.06,40.23,435.3,40.23Z"/><path d="M466.13,216.93c-6.93,1.41-7.43,1.07-7.43-5.16q0-30.95,0-61.91c0-2.71-.4-5.35,3.83-5.38s3.89,2.48,3.89,5.26q0,31.45,0,62.91C466.38,214.11,466.21,215.57,466.13,216.93Z"/><path d="M183.42,217c-6.81,1.27-7.08,1.08-7.08-5q0-31,0-61.93c0-2.5-.89-5.49,3.53-5.56,4.21-.07,3.89,2.54,3.89,5.29q0,31.46,0,62.93C183.75,214.17,183.53,215.61,183.42,217Z"/></svg>